<?xml version="1.0" encoding="UTF-8"?>
<svg viewBox="0 0 897.22198 915.99451" xmlns="http://www.w3.org/2000/svg" xmlns:xlink="http://www.w3.org/1999/xlink">
 <defs>
  <filter id="g">
   <feGaussianBlur stdDeviation="1.05039"/>
  </filter>
  <filter id="k">
   <feGaussianBlur stdDeviation=".27551"/>
  </filter>
  <filter id="h" x="-.19703" y="-.7881" width="1.394" height="2.5762">
   <feGaussianBlur stdDeviation="2.62615"/>
  </filter>
  <filter id="i" x="-.15225" y="-.60899" width="1.3045" height="2.218">
   <feGaussianBlur stdDeviation="2.0293"/>
  </filter>
  <filter id="j" x="-.108" y="-.108" width="1.216" height="1.216">
   <feGaussianBlur stdDeviation="2.69978"/>
  </filter>
  <filter id="a" x="-.17288" y="-.39231" width="1.3458" height="1.7846">
   <feGaussianBlur stdDeviation="2.30064"/>
  </filter>
  <linearGradient id="f">
   <stop stop-color="#afa6a6" offset="0"/>
   <stop stop-color="#4d4d4d" offset="1"/>
  </linearGradient>
  <linearGradient id="c">
   <stop stop-color="#fff" stop-opacity=".28235" offset="0"/>
   <stop stop-color="#fff" stop-opacity=".21961" offset="1"/>
  </linearGradient>
  <linearGradient id="e">
   <stop stop-color="#fff" offset="0"/>
   <stop stop-color="#0f0" offset=".24324"/>
   <stop stop-color="#00fa00" offset="1"/>
  </linearGradient>
  <linearGradient id="ak" x2="0" y1="122.49" y2="997.63" gradientUnits="userSpaceOnUse">
   <stop stop-color="#bebebe" offset="0"/>
   <stop stop-color="#302c2c" offset=".5"/>
   <stop stop-color="#bebebe" offset="1"/>
  </linearGradient>
  <linearGradient id="aj" x1="35.553" x2="36.268" y1="157.98" y2="175.32" gradientTransform="matrix(.73555 0 0 1.0379 1794.3 34.607)" gradientUnits="userSpaceOnUse">
   <stop stop-color="#262626" offset="0"/>
   <stop stop-color="#948b8b" offset="1"/>
  </linearGradient>
  <linearGradient id="ai" x2="0" y1="265.14" y2="854.82" gradientUnits="userSpaceOnUse">
   <stop offset="0"/>
   <stop offset=".8"/>
   <stop stop-color="#434040" offset=".8"/>
   <stop stop-color="#868181" offset="1"/>
  </linearGradient>
  <linearGradient id="ah" x2="0" y1="539.54" y2="610.97" gradientUnits="userSpaceOnUse">
   <stop stop-color="#501616" offset="0"/>
   <stop stop-color="#501616" offset=".25"/>
   <stop stop-color="#cca25a" offset=".3"/>
   <stop stop-color="#cca25a" offset="1"/>
  </linearGradient>
  <linearGradient id="ag" x2="0" y1="242.36" y2="313.79" gradientUnits="userSpaceOnUse">
   <stop stop-color="#f84545" offset="0"/>
   <stop stop-color="#f00" offset=".2"/>
   <stop stop-color="#040000" offset=".21"/>
   <stop stop-color="#fff" offset=".24"/>
   <stop stop-color="#fff" offset="1"/>
  </linearGradient>
  <linearGradient id="ae" x1="-7.4271" x2="93.96" y1="255.63" y2="356.93" gradientUnits="userSpaceOnUse">
   <stop stop-color="#c5ff00" offset="0"/>
   <stop stop-color="#ff8900" offset="1"/>
  </linearGradient>
  <linearGradient id="ad" x1="166.99" x2="195.54" y1="242.36" y2="313.79" gradientUnits="userSpaceOnUse">
   <stop stop-color="#ccc7c7" offset="0"/>
   <stop stop-color="#393939" offset="1"/>
  </linearGradient>
  <linearGradient id="ac" x2="0" y1="499.67" y2="428.24" gradientUnits="userSpaceOnUse">
   <stop stop-color="#838383" offset="0"/>
   <stop stop-color="#aeaeae" offset=".8"/>
   <stop stop-color="#b5b5b5" offset=".94595"/>
   <stop stop-color="#e5e5e5" offset="1"/>
  </linearGradient>
  <linearGradient id="ab" x2="0" y1="348.08" y2="419.5" gradientUnits="userSpaceOnUse">
   <stop stop-color="#02f" offset="0"/>
   <stop stop-color="#004dff" offset=".7027"/>
   <stop stop-color="#00c9ff" offset="1"/>
  </linearGradient>
  <linearGradient id="z" x2="0" y1="466.47" y2="517.99" gradientUnits="userSpaceOnUse">
   <stop stop-color="#ff5700" offset="0"/>
   <stop stop-color="#ff0" offset="1"/>
  </linearGradient>
  <linearGradient id="v" x2="0" y1="510.74" y2="582.17" gradientUnits="userSpaceOnUse">
   <stop stop-color="#a9a4a4" offset="0"/>
   <stop stop-color="#666" offset="1"/>
  </linearGradient>
  <linearGradient id="b" x2="0" y1="402.64" y2="429.11" gradientUnits="userSpaceOnUse">
   <stop stop-color="#854b4b" offset="0"/>
   <stop stop-color="#551616" offset="1"/>
  </linearGradient>
  <linearGradient id="u" x2="0" y1="730.78" y2="802.21" gradientUnits="userSpaceOnUse">
   <stop stop-color="#95b0ff" offset="0"/>
   <stop stop-color="#3065ff" offset=".2027"/>
   <stop stop-color="#3065ff" offset="1"/>
  </linearGradient>
  <linearGradient id="t" x1="-840.04" x2="-479.55" gradientUnits="userSpaceOnUse">
   <stop stop-color="#fff" offset="0"/>
   <stop stop-color="#b4b8b8" offset="1"/>
  </linearGradient>
  <linearGradient id="s" x1="-840.04" x2="-479.55" gradientUnits="userSpaceOnUse">
   <stop stop-color="#f00" offset="0"/>
   <stop stop-color="#b04947" offset="1"/>
  </linearGradient>
  <linearGradient id="p" x2="0" y1="399.23" y2="435.26" gradientUnits="userSpaceOnUse">
   <stop stop-color="#fafaff" stop-opacity=".36078" offset="0"/>
   <stop stop-color="#fff" stop-opacity=".12549" offset="1"/>
  </linearGradient>
  <linearGradient id="af" x2="0" y1="280.75" y2="352.18" gradientUnits="userSpaceOnUse" xlink:href="#e"/>
  <linearGradient id="aa" x2="0" y1="348.08" y2="384.11" gradientUnits="userSpaceOnUse" xlink:href="#c"/>
  <linearGradient id="y" x1="-64.094" x2="7.3121" gradientUnits="userSpaceOnUse" xlink:href="#c"/>
  <linearGradient id="x" x2="0" y1="730.78" y2="802.21" gradientUnits="userSpaceOnUse" xlink:href="#e"/>
  <linearGradient id="w" x2="0" y1="729.71" y2="765.74" gradientUnits="userSpaceOnUse" xlink:href="#c"/>
  <linearGradient id="r" x2="0" y1="513.73" y2="579.18" gradientUnits="userSpaceOnUse" xlink:href="#f"/>
  <linearGradient id="q" x2="0" y1="515.21" y2="580.66" gradientUnits="userSpaceOnUse" xlink:href="#f"/>
  <radialGradient id="o" cx="102.85" cy="264.19" r="16.24" gradientTransform="matrix(-.97249 1.8181 -1.0578 -.56584 482.35 226.69)" gradientUnits="userSpaceOnUse">
   <stop stop-color="#280b0b" offset="0"/>
   <stop stop-color="#511212" offset="1"/>
  </radialGradient>
  <radialGradient id="n" cx="177.43" cy="283.51" r="25.212" gradientUnits="userSpaceOnUse">
   <stop offset="0"/>
   <stop stop-color="#000008" offset=".71146"/>
   <stop stop-color="#2c2828" offset=".82262"/>
   <stop stop-color="#3f3f3f" offset=".92233"/>
   <stop stop-color="#2a2a2a" offset=".96131"/>
   <stop offset="1"/>
  </radialGradient>
  <radialGradient id="m" cx="174.61" cy="275.76" r="9.3264" gradientTransform="matrix(-.83643 1.262 -1.2259 -.81247 658.71 279.43)" gradientUnits="userSpaceOnUse">
   <stop stop-color="#040038" offset="0"/>
   <stop stop-color="#0b0092" offset="1"/>
  </radialGradient>
  <radialGradient id="l" cx="757.25" cy="537.47" r="11.962" gradientTransform="matrix(-.42707 .93498 -.9096 -.41548 1569.5 52.761)" gradientUnits="userSpaceOnUse">
   <stop stop-color="#fdb5b5" offset="0"/>
   <stop stop-color="#f00" offset="1"/>
  </radialGradient>
  <radialGradient id="d" cx="-59.667" cy="457.5" r="3.4352" gradientTransform="matrix(-.63066 .92336 -.82577 -.564 280.49 770.62)" gradientUnits="userSpaceOnUse">
   <stop stop-color="#646464" offset="0"/>
   <stop stop-color="#333" offset="1"/>
  </radialGradient>
 </defs>
 <g transform="matrix(.95598 .29342 -.54958 .87736 -989.27 -553.65)" fill="#8c8989" stroke="#8d8d8d">
  <path d="m1653.9 130.43h361.37a42.893 43.429 0 0 1 42.893 43.429v772.4a42.893 43.429 0 0 1 -42.893 43.429h-361.37a42.893 43.429 0 0 1 -42.893 -43.429v-772.4a42.893 43.429 0 0 1 42.893 -43.429" stroke-linecap="round" stroke-linejoin="bevel" stroke-width="15.88"/>
  <path d="m1796.7 200.64h75.9a5.8353 6.923 0 0 1 5.8353 6.923 5.8353 6.923 0 0 1 -5.8353 6.923h-75.9a5.8353 6.923 0 0 1 -5.8353 -6.923 5.8353 6.923 0 0 1 5.8353 -6.923" stroke-linecap="round" stroke-linejoin="bevel" stroke-width="3.4949"/>
  <path d="m1663.8 267.42h341.74a21.434 17.237 0 0 1 21.434 17.237v550.65a21.434 17.237 0 0 1 -21.434 17.237h-341.74a21.434 17.237 0 0 1 -21.434 -17.237v-550.65a21.434 17.237 0 0 1 21.434 -17.237" stroke-linecap="round" stroke-linejoin="bevel" stroke-width="4.2686"/>
  <g transform="translate(1736.9 28.795)" stroke-linecap="round" stroke-linejoin="bevel">
   <g stroke-width="2.8571">
    <path transform="matrix(.7 0 0 .7 201.71 211.88)" d="m-91.429 966.65a57.143 57.143 0 1 1 -114.29 0 57.143 57.143 0 1 1 114.29 0z"/>
    <path d="m59.574 900.63c5.1258 16.181 20.255 27.906 38.125 27.906s33.03-11.725 38.156-27.906c-12.196 2.0966-24.978 3.2188-38.156 3.2188-13.167 0-25.938-1.1255-38.125-3.2188z"/>
   </g>
   <path d="m93.174 871.21h9.0813a9.9327 6.8298 0 0 1 9.9327 6.8298v15.287a9.9327 6.8298 0 0 1 -9.9327 6.8298h-9.0813a9.9327 6.8298 0 0 1 -9.9327 -6.8298v-15.287a9.9327 6.8298 0 0 1 9.9327 -6.8298" stroke-width="3.5"/>
  </g>
  <path d="m1861.4 539.54h38.095a16.667 11.46 0 0 1 16.667 11.46v48.508a16.667 11.46 0 0 1 -16.667 11.46h-38.095a16.667 11.46 0 0 1 -16.667 -11.46v-48.508a16.667 11.46 0 0 1 16.667 -11.46" stroke-linecap="round" stroke-linejoin="bevel" stroke-width="8"/>
  <g transform="translate(1778.1 74.143)">
   <path d="m-7.5238 242.36h38.095a16.667 11.46 0 0 1 16.667 11.46v48.508a16.667 11.46 0 0 1 -16.667 11.46h-38.095a16.667 11.46 0 0 1 -16.667 -11.46v-48.508a16.667 11.46 0 0 1 16.667 -11.46" stroke-linecap="round" stroke-linejoin="bevel" stroke-width="8"/>
   <g transform="translate(.19938)" font-family="Bitstream Vera Sans" font-size="11">
    <text transform="matrix(1.0461 0 0 1.0461 .55043 -11.788)" x="-11.89723" y="253.19632" filter="url(#k)">
     <tspan x="-11.89723" y="253.19632">Tuesday</tspan>
    </text>
    <text x="-10.87161" y="252.95073">
     <tspan x="-10.87161" y="252.95073">Tuesday</tspan>
    </text>
   </g>
   <text x="-3.56993" y="301.19553" font-family="Bitstream Vera Sans" font-size="48">
    <tspan x="-3.56993" y="301.19553">9</tspan>
   </text>
  </g>
  <g transform="translate(1765.7 35.757)">
   <path d="m-87.293 280.75h38.095a16.667 11.46 0 0 1 16.667 11.46v48.508a16.667 11.46 0 0 1 -16.667 11.46h-38.095a16.667 11.46 0 0 1 -16.667 -11.46v-48.508a16.667 11.46 0 0 1 16.667 -11.46" stroke-linecap="round" stroke-linejoin="bevel" stroke-width="8"/>
   <path d="m-67.428 292.29c-14.343 0-25.969 8.479-25.969 18.938 0 4.8139 2.4704 9.2191 6.5312 12.562l-1.8438 2.75c-0.43265 0.61575-8.9276 12.085-8.6562 12.312s13.39-7.3925 14.094-7.7812c0.24707-0.13643 2.8078-1.4897 5-2.6562 3.309 1.1145 6.9615 1.7812 10.844 1.7812 14.343 0 26-8.5103 26-18.969s-11.657-18.938-26-18.938z" stroke-linecap="round" stroke-linejoin="bevel" stroke-width="8"/>
   <text x="-87.98504" y="318.81519" font-family="Geneva" font-size="20" font-weight="bold">
    <tspan x="-87.98504" y="318.81519">SMS</tspan>
   </text>
  </g>
  <g transform="translate(1785.1 74.143)" stroke-linecap="round" stroke-linejoin="bevel" stroke-width="8">
   <path d="m76.286 242.36h38.095a16.667 11.46 0 0 1 16.667 11.46v48.508a16.667 11.46 0 0 1 -16.667 11.46h-38.095a16.667 11.46 0 0 1 -16.667 -11.46v-48.508a16.667 11.46 0 0 1 16.667 -11.46"/>
   <path transform="translate(-4.3306 -1.0826)" d="m99.604 267.44a15.969 7.0373 0 1 1 -31.938 0 15.969 7.0373 0 1 1 31.938 0z" filter="url(#a)"/>
   <path transform="translate(28.149 21.653)" d="m99.604 267.44a15.969 7.0373 0 1 1 -31.938 0 15.969 7.0373 0 1 1 31.938 0z" filter="url(#a)"/>
   <path transform="translate(27.066 -11.909)" d="m99.604 267.44a15.969 7.0373 0 1 1 -31.938 0 15.969 7.0373 0 1 1 31.938 0z" filter="url(#a)"/>
   <path d="m101.65625,294-7.09375,3.25-.28125.71875c-.68329,1.78539-1.41377,3.56912-2.125,5.34375-.15786-.03773-.3109-.08657-.46875-.125-1.21188-.20111-2.43283-.17142-3.65625-.1875h-3.53125c-1.07934.01971-2.14035-.01855-3.21875-.03125-1.2752-.1432-1.96957-.94221-2.875-1.75-1.18353-.91181-2.55885-1.55797-3.875-2.25-.16671-.10645-.33329-.20606-.5-.3125l-6.625,4.28125c.1725.10311.3275.2094.5.3125 1.28153.66067 2.61303,1.28893 3.8125,2.09375 .94529.93087 1.73906,1.91178 3.09375,2.21875 1.0919.06787 2.20789.15795 3.3125.09375l3.53125-.03125c1.19677.01032 2.40054.01342 3.59375.125 1.28287.23033 2.57418.36734 3.71875,1.0625 .6691.31001 1.31732.62506 1.96875.96875 .34069,1.32416.60277,2.66422 1.28125,3.875l6.9375-4.0625c-.60014-.726-.83517-1.58598-1.03125-2.46875l2.03125-.90625c.04325-.0598.08129-.12735.125-.1875 1.2648-.06827 2.54548.00119 3.8125.09375 1.70751.257 3.24939,1.08762 4.8125,1.78125 1.34114.73828 2.29765.48825 3.65625.25 4.20658-1.71279 7.20273-4.0016 10.46875-6.71875l.5-.375-6.90625,2.78125c-.36252-.01017-.74428-.10583-1.21875-.3125-1.63579-.69713-3.27971-1.51213-5.03125-1.84375-1.87359-.22517-3.73534-.38555-5.625-.15625-2.40771.47036-4.75901,1.3364-6.84375,2.65625 .17961-1.24985.61413-2.47765 1-3.6875 .85684-1.91575 1.63299-3.86194 2.40625-5.8125 .11387-.23354.22988-.45397.34375-.6875z"/>
   <path transform="matrix(.5782 0 0 .5782 69.405 98.585)" d="m84.447 276.64c0.35149 0.47225-6.8182 9.2829-6.5308 9.7967 0.30022 0.53662 12.044-0.07102 12.288 0.49362 0.23311 0.54058-8.7752 7.4603-8.614 8.0265 0.16838 0.59139 11.736 2.7086 11.843 3.3141 0.10216 0.57977-10.259 5.2355-10.233 5.8236 0.02746 0.61428 10.795 5.3421 10.759 5.9559-0.0343 0.5877-11.19 2.7284-11.3 3.3068-0.11495 0.60405 9.2722 7.6876 9.0958 8.2767-0.16891 0.56395-11.518 0.07432-11.758 0.61167-0.25115 0.56126 7.2494 9.6187 6.9419 10.151-0.29441 0.50979-11.224-2.5838-11.582-2.1164-0.37382 0.48821 4.8358 11.031 4.4138 11.478-0.40404 0.42816-10.326-5.1027-10.782-4.7304-0.47633 0.38884 2.1614 11.849 1.6477 12.187-0.49189 0.32343-8.8708-7.3464-9.4004-7.0894-0.55317 0.26851-0.62943 12.028-1.2073 12.238-0.55322 0.20128-6.9374-9.1941-7.512-9.0661-0.60018 0.1337-3.3864 11.559-3.9971 11.63-0.58472 0.06828-4.6301-10.546-5.2188-10.554-0.61484-0.00831-5.9607 10.466-6.5715 10.395-0.58471-0.06841-2.0732-11.33-2.6441-11.473-0.59635-0.14988-8.2138 8.8096-8.7916 8.5992-0.55317-0.20141 0.5955-11.502 0.07304-11.774-0.54571-0.28337-10.024 6.6779-10.538 6.3399-0.49181-0.32356 3.2321-11.055 2.7863-11.44-0.46565-0.40157-11.294 4.1862-11.716 3.7389-0.40394-0.42825 5.6944-10.012 5.3493-10.489-0.36049-0.49814-11.955 1.4688-12.262 0.93626-0.29429-0.50986 7.8498-8.4286 7.624-8.9722-0.23589-0.56784-11.971-1.3277-12.148-1.9168-0.16877-0.56399 9.582-6.3911 9.4876-6.9722-0.09858-0.60694-11.342-4.0527-11.378-4.6666-0.03416-0.58771 10.798-4.0091 10.84-4.5963 0.04405-0.61331-10.102-6.5592-9.9952-7.1648 0.1023-0.57974 11.431-1.4109 11.608-1.9726 0.1843-0.58662-8.3171-8.7121-8.0735-9.2767 0.23324-0.54052 11.448 1.2633 11.75 0.7575 0.31461-0.52831-6.0837-10.395-5.7165-10.888 0.3516-0.47216 10.848 3.8694 11.258 3.4467 0.42797-0.44152-3.5224-11.518-3.0513-11.913 0.45101-0.37835 9.6636 6.2669 10.16 5.9501 0.51825-0.33092-0.77122-12.02-0.2217-12.296 0.52611-0.26414 7.9579 8.3266 8.5138 8.1327 0.5806-0.20248 2.0216-11.874 2.6199-12.016 0.57284-0.1357 5.8232 9.9374 6.4087 9.8769 0.61164-0.06312 4.7054-11.088 5.3203-11.087 0.5887 7e-5 3.3745 11.012 3.9582 11.089 0.60972 0.07963 7.1355-9.7036 7.7338-9.5617 0.57281 0.13583 0.74388 11.494 1.2943 11.703 0.57492 0.21809 9.181-7.7964 9.7304-7.5204 0.52605 0.26427-1.9268 11.356-1.4394 11.686 0.50912 0.3448 10.731-5.469 11.202-5.0737 0.45092 0.37846-4.4936 10.605-4.0955 11.039 0.41588 0.45292 11.703-2.8468 12.071-2.3535z"/>
   <path transform="translate(-12.22 6.0742)" d="m122.88 269.6a16.24 16.24 0 1 1 -32.48 0 16.24 16.24 0 1 1 32.48 0z"/>
  </g>
  <g transform="translate(1792.7 74.143)" stroke-linecap="round" stroke-linejoin="bevel">
   <path d="m160.1 242.36h38.095a16.667 11.46 0 0 1 16.667 11.46v48.508a16.667 11.46 0 0 1 -16.667 11.46h-38.095a16.667 11.46 0 0 1 -16.667 -11.46v-48.508a16.667 11.46 0 0 1 16.667 -11.46" stroke-width="8"/>
   <path transform="translate(1.7162 -5.4367)" d="m202.64 283.51a25.212 25.212 0 1 1 -50.424 0 25.212 25.212 0 1 1 50.424 0z" stroke-width="8"/>
   <path transform="matrix(1.3421 0 0 1.3421 -58.034 -95.787)" d="m185.67 278.57a8.9538 8.9538 0 1 1 -17.908 0 8.9538 8.9538 0 1 1 17.908 0z" stroke-width=".7451"/>
  </g>
  <path d="m1861.4 428.24h38.095a16.667 11.46 0 0 1 16.667 11.46v48.508a16.667 11.46 0 0 1 -16.667 11.46h-38.095a16.667 11.46 0 0 1 -16.667 -11.46v-48.508a16.667 11.46 0 0 1 16.667 -11.46" stroke-linecap="round" stroke-linejoin="bevel" stroke-width="8"/>
  <g transform="translate(1774.1 41.559)">
   <g transform="translate(4.0406 38.386)" stroke-linecap="round" stroke-linejoin="bevel" stroke-width="8">
    <path d="m-7.624 348.08h38.095a16.667 11.46 0 0 1 16.667 11.46v48.508a16.667 11.46 0 0 1 -16.667 11.46h-38.095a16.667 11.46 0 0 1 -16.667 -11.46v-48.508a16.667 11.46 0 0 1 16.667 -11.46"/>
    <path d="m-7.6233 348.08c-9.2333 0-16.656 5.0886-16.656 11.438v15.125c9.4004 5.8664 21.919 9.4688 35.688 9.4688s26.318-3.6023 35.719-9.4688v-15.125c0-6.3489-7.4229-11.438-16.656-11.438h-38.094z"/>
   </g>
   <path d="m-19.051 428.17c2.6365 0.65913 4.0159-2.1821 6.5975-2.8275 3.3306-0.83266 4.3802 1.0815 5.655 2.3563 2.6053 2.6053 5.4306 0.32552 6.1263-1.4138l2.8275-7.0688c0.57771-1.4443 4.7706-4.0492 5.655-4.7125 2.7251-2.0438 5.0396 0.43616 6.1263 1.885 1.4576 1.9434 2.3008 3.4925 2.8275 6.1263 0.54624 2.7312 3.3445 3.0403 5.655 1.885 2.76-1.38 1.496-3.9084 4.7125-4.7125 2.2281-0.55703 2.9494 3.0327 5.655 2.3563 2.7642-0.69104 4.744-4.3043 5.655-6.1263 1.2032-2.4064 2.8602-4.3066 3.77-6.1263 0.94512-1.8902 3.2962 2.8223 4.2413 4.7125 0.91177 1.8236 3.1028 2.1603 4.2413 3.2988" fill-rule="evenodd"/>
  </g>
  <g transform="translate(1793.4 79.945)">
   <g stroke-linecap="round" stroke-linejoin="bevel" stroke-width="8">
    <path d="m159.36 348.08h38.095a16.667 11.46 0 0 1 16.667 11.46v48.508a16.667 11.46 0 0 1 -16.667 11.46h-38.095a16.667 11.46 0 0 1 -16.667 -11.46v-48.508a16.667 11.46 0 0 1 16.667 -11.46"/>
    <path d="m159.36 348.08c-9.2333 0-16.656 5.0886-16.656 11.438v15.125c9.4004 5.8664 21.919 9.4688 35.688 9.4688s26.318-3.6023 35.719-9.4688v-15.125c0-6.3489-7.4229-11.438-16.656-11.438h-38.094z"/>
   </g>
   <g transform="translate(.24529)">
    <g stroke-linecap="round" stroke-linejoin="bevel">
     <path transform="matrix(.79795 0 0 .79795 -141.84 48.458)" d="m387.9 386.67c0.34712-0.16713 5.9141 4.5708 6.2831 4.4601s2.406-7.1315 2.7878-7.1832 4.2122 6.1747 4.5974 6.1834 4.492-6.039 4.871-5.9702 2.098 7.1741 2.4616 7.3014 6.1383-4.3553 6.4775-4.1727-0.22166 7.4713 0.08484 7.7047 7.1837-2.2453 7.4499-1.9668-2.5196 7.0371-2.3002 7.3538 7.526 0.08448 7.6931 0.4316-4.5709 5.9141-4.4601 6.2831 7.1315 2.406 7.1832 2.7878-6.1747 4.2122-6.1834 4.5974 6.039 4.492 5.9702 4.8711-7.1741 2.098-7.3014 2.4616 4.3553 6.1383 4.1727 6.4775-7.4713-0.22166-7.7047 0.08485 2.2453 7.1837 1.9668 7.4499-7.0371-2.5196-7.3538-2.3002-0.08448 7.526-0.4316 7.6931-5.9141-4.5708-6.2831-4.4601-2.406 7.1315-2.7878 7.1832-4.2122-6.1747-4.5974-6.1834-4.492 6.039-4.8711 5.9702-2.098-7.1741-2.4616-7.3014-6.1383 4.3553-6.4775 4.1727 0.22166-7.4713-0.08485-7.7047-7.1837 2.2453-7.4499 1.9668 2.5196-7.0371 2.3002-7.3538-7.526-0.08448-7.6931-0.4316 4.5708-5.9141 4.4601-6.2831-7.1315-2.406-7.1832-2.7878 6.1747-4.2122 6.1834-4.5974-6.039-4.492-5.9702-4.8711 7.1741-2.098 7.3014-2.4616-4.3553-6.1383-4.1727-6.4775 7.4713 0.22166 7.7047-0.08485-2.2453-7.1837-1.9668-7.4499 7.0372 2.5196 7.3538 2.3002 0.08447-7.526 0.43159-7.6931z" filter="url(#j)" stroke-width="4"/>
     <path transform="matrix(.68512 0 0 .68512 -48.492 41.531)" d="m356.58 492.23a25.759 25.759 0 1 1 -51.518 0 25.759 25.759 0 1 1 51.518 0z" stroke-width="1.663"/>
    </g>
    <text x="165.12912" y="416.19299" font-family="Bitstream Vera Sans" font-size="15.973">
     <tspan x="165.12912" y="416.19299">73</tspan>
    </text>
   </g>
  </g>
  <g transform="translate(1725.8 28.795)" stroke-linecap="round">
   <g stroke-linejoin="bevel" stroke-width="8">
    <path d="m-47.439 510.74h38.095a16.667 11.46 0 0 1 16.667 11.46v48.508a16.667 11.46 0 0 1 -16.667 11.46h-38.095a16.667 11.46 0 0 1 -16.667 -11.46v-48.508a16.667 11.46 0 0 1 16.667 -11.46"/>
    <path d="m-47.438 510.74c-9.2333 0-16.656 5.0886-16.656 11.438v15.125c9.4004 5.8664 21.919 9.4688 35.688 9.4688s26.318-3.6023 35.719-9.4688v-15.125c0-6.3489-7.4229-11.438-16.656-11.438h-38.094z"/>
   </g>
   <path transform="translate(543.82)" d="m-545.16 543.86a27.991 27.325 0 1 1 -55.982 0 27.991 27.325 0 1 1 55.982 0z" stroke-linejoin="bevel" stroke-width="1.5"/>
   <path transform="matrix(.10684 -.013379 .31237 .099752 -250.12 473.51)" d="m20.66 663.82c1.9046 1.7892 38.69 33.24 38.093 35.784s-47.535 14.342-50.036 15.097-48.132 16.886-50.036 15.097 11.346-48.337 11.944-50.881 9.4418-50.127 11.944-50.881 36.188 33.995 38.093 35.784z" stroke-linejoin="bevel" stroke-width="1.5"/>
   <path transform="matrix(.021668 -.08425 .18882 -.13486 -161.52 640.86)" d="m20.66 663.82c1.9046 1.7892 38.69 33.24 38.093 35.784s-47.535 14.342-50.036 15.097-48.132 16.886-50.036 15.097 11.346-48.337 11.944-50.881 9.4418-50.127 11.944-50.881 36.188 33.995 38.093 35.784z" stroke-linejoin="bevel" stroke-width="1.5"/>
   <path d="m-27.608 544.06 10.827-22.194" fill-rule="evenodd"/>
  </g>
  <g transform="translate(1725.4 21.103)" stroke-linecap="round" stroke-linejoin="bevel">
   <path d="m-47.048 730.78h38.095a16.667 11.46 0 0 1 16.667 11.46v48.508a16.667 11.46 0 0 1 -16.667 11.46h-38.095a16.667 11.46 0 0 1 -16.667 -11.46v-48.508a16.667 11.46 0 0 1 16.667 -11.46" stroke-width="8"/>
   <g transform="matrix(.2582 -.2335 .2335 .2582 -116.76 571.49)">
    <g stroke-width="1.5">
     <path transform="matrix(0 1 -1 0 455.76 708.35)" d="m-145.15 633.89a35.815 32.045 0 1 1 -71.63 0h35.815z"/>
     <path transform="matrix(0 1 -1 0 455.76 827.1)" d="m-145.15 633.89a35.815 32.045 0 1 1 -71.63 0h35.815z"/>
    </g>
    <path transform="matrix(0 1.0298 -.65413 0 204.81 771.17)" d="m-111.22 604.67a67.86 53.723 0 1 1 -135.72 -1e-5" stroke-width="30.461"/>
   </g>
  </g>
  <g transform="translate(1734.1 21.103)" stroke-linecap="round" stroke-linejoin="bevel">
   <g stroke-width="8">
    <path d="m36.396 730.02h38.095a16.667 11.46 0 0 1 16.667 11.46v48.508a16.667 11.46 0 0 1 -16.667 11.46h-38.095a16.667 11.46 0 0 1 -16.667 -11.46v-48.508a16.667 11.46 0 0 1 16.667 -11.46"/>
    <path d="m36.397 730.02c-9.2333 0-16.656 5.0886-16.656 11.438v15.125c9.4004 5.8664 21.919 9.4688 35.688 9.4688s26.318-3.6023 35.719-9.4688v-15.125c0-6.3489-7.4229-11.438-16.656-11.438h-38.094z"/>
   </g>
   <path transform="matrix(.91667 0 0 1.6667 14.329 -594.5)" d="m43.986 829.77a15.995 3.9987 0 1 1 -31.99 0 15.995 3.9987 0 1 1 31.99 0z" filter="url(#i)" stroke-width="25"/>
   <path transform="matrix(.70833 0 0 1.2879 55.482 -293.34)" d="m43.986 829.77a15.995 3.9987 0 1 1 -31.99 0 15.995 3.9987 0 1 1 31.99 0z" filter="url(#h)" stroke-width="25"/>
   <g transform="translate(-81.875 3.2766)" stroke-width="25">
    <path d="m111.96 745.79h50.708v33.323h-50.708z" filter="url(#g)"/>
    <path d="m113.99 747.13h46.652v30.657h-46.652z"/>
   </g>
   <path transform="matrix(0 .26217 -.47811 0 430.5 813.38)" d="m-155.95 784.45c0 2.4241-39.887 23.029-41.986 24.241s-39.887 25.453-41.986 24.241 0-46.058 0-48.482-2.0993-47.27 0-48.482 39.887 23.029 41.986 24.241 41.986 21.817 41.986 24.241z" stroke-width="2.8245"/>
  </g>
  <g transform="translate(1748.1 21.103)" stroke-linecap="round" stroke-linejoin="bevel">
   <g stroke-width="8">
    <path d="m204.63 729.71h38.095a16.667 11.46 0 0 1 16.667 11.46v48.508a16.667 11.46 0 0 1 -16.667 11.46h-38.095a16.667 11.46 0 0 1 -16.667 -11.46v-48.508a16.667 11.46 0 0 1 16.667 -11.46"/>
    <path d="m204.64 729.71c-9.2333 0-16.656 5.0886-16.656 11.438v15.125c9.4004 5.8664 21.919 9.4688 35.688 9.4688s26.318-3.6023 35.719-9.4688v-15.125c0-6.3489-7.4229-11.438-16.656-11.438h-38.094z"/>
   </g>
   <g transform="translate(1.7381 -2.1976)">
    <path d="m211.08 742.72h21.72a3.2143 3.5714 0 0 1 3.2143 3.5714v42.659a3.2143 3.5714 0 0 1 -3.2143 3.5714h-21.72a3.2143 3.5714 0 0 1 -3.2143 -3.5714v-42.659a3.2143 3.5714 0 0 1 3.2143 -3.5714"/>
    <path transform="matrix(1.098 0 0 1.098 -22.173 -76.583)" d="m231.43 779.33a9.1071 9.1071 0 1 1 -18.214 0 9.1071 9.1071 0 1 1 18.214 0z"/>
    <path transform="matrix(1.2632 0 0 1.2632 -60.236 -204.36)" d="m226.79 778.61a3.3929 3.3929 0 1 1 -6.7857 0 3.3929 3.3929 0 1 1 6.7857 0z"/>
    <path d="m211.41 746.29h21.071v15.714h-21.071z"/>
   </g>
  </g>
  <g transform="translate(1733.8 28.795)">
   <path d="m36.762 510.74h38.095a16.667 11.46 0 0 1 16.667 11.46v48.508a16.667 11.46 0 0 1 -16.667 11.46h-38.095a16.667 11.46 0 0 1 -16.667 -11.46v-48.508a16.667 11.46 0 0 1 16.667 -11.46" stroke-linecap="round" stroke-linejoin="bevel" stroke-width="8"/>
   <g transform="translate(.1713,-.82071)">
    <path transform="translate(757.63 116.41)" d="m-673.97 415.88a12.233 12.233 0 1 1 -24.465 0 12.233 12.233 0 1 1 24.465 0z" stroke-linecap="round" stroke-linejoin="bevel" stroke-width="2"/>
    <text x="65.64871" y="541.04822" font-family="Bitstream Vera Sans" font-size="32">
     <tspan x="65.64871" y="541.04822">-</tspan>
    </text>
    <path transform="translate(726.06 116.41)" d="m-673.97 415.88a12.233 12.233 0 1 1 -24.465 0 12.233 12.233 0 1 1 24.465 0z" stroke-linecap="round" stroke-linejoin="bevel" stroke-width="2"/>
    <text x="32.31331" y="537.92517" font-family="Bitstream Vera Sans" font-size="32">
     <tspan x="32.31331" y="537.92517" fill="#8c8989" font-size="18" stroke="#8d8d8d">+</tspan>
    </text>
    <path transform="translate(726.06 146.4)" d="m-673.97 415.88a12.233 12.233 0 1 1 -24.465 0 12.233 12.233 0 1 1 24.465 0z" stroke-linecap="round" stroke-linejoin="bevel" stroke-width="2"/>
    <text x="34.56331" y="567.19391" font-family="Bitstream Vera Sans" font-size="32">
     <tspan x="34.56331" y="567.19391" fill="#8c8989" font-size="18" stroke="#8d8d8d">x</tspan>
    </text>
    <path transform="translate(757.63 146.4)" d="m-673.97 415.88a12.233 12.233 0 1 1 -24.465 0 12.233 12.233 0 1 1 24.465 0z" stroke-linecap="round" stroke-linejoin="bevel" stroke-width="2"/>
    <text x="63.88112" y="567.91901" font-family="Bitstream Vera Sans" font-size="32">
     <tspan x="63.88112" y="567.91901" fill="#8c8989" font-size="18" stroke="#8d8d8d"></tspan>
    </text>
   </g>
  </g>
  <g transform="translate(1740.9 21.103)" stroke-linecap="round" stroke-linejoin="bevel">
   <path d="m120.57 730.78h38.095a16.667 11.46 0 0 1 16.667 11.46v48.508a16.667 11.46 0 0 1 -16.667 11.46h-38.095a16.667 11.46 0 0 1 -16.667 -11.46v-48.508a16.667 11.46 0 0 1 16.667 -11.46" stroke-width="8"/>
   <g stroke-width="2">
    <g transform="matrix(.22931 -.15733 .15733 .22931 126.84 539.63)">
     <path d="m-353.67 597.65c4.486 2.8718-47.371 90.644-46.418 95.885 0.96539 5.3099 80.42 70.574 77.51 75.119-2.8718 4.486-90.644-47.371-95.885-46.418-5.3099 0.96539-70.574 80.42-75.119 77.51-4.486-2.8718 47.371-90.644 46.418-95.885-0.96538-5.3099-80.42-70.574-77.51-75.119 2.8718-4.486 90.644 47.371 95.885 46.418 5.3099-0.96538 70.574-80.42 75.119-77.51z"/>
     <path transform="matrix(.29912 .27977 -.27977 .29912 -102.4 605.3)" d="m-353.67 597.65c4.486 2.8718-47.371 90.644-46.418 95.885 0.96539 5.3099 80.42 70.574 77.51 75.119-2.8718 4.486-90.644-47.371-95.885-46.418-5.3099 0.96539-70.574 80.42-75.119 77.51-4.486-2.8718 47.371-90.644 46.418-95.885-0.96538-5.3099-80.42-70.574-77.51-75.119 2.8718-4.486 90.644 47.371 95.885 46.418 5.3099-0.96538 70.574-80.42 75.119-77.51z"/>
    </g>
    <path transform="matrix(.21782 0 0 .21782 240.57 637.8)" d="m-439.17 590.85a24.29 24.29 0 1 1 -48.581 0 24.29 24.29 0 1 1 48.581 0z"/>
    <path transform="matrix(-.01028 -.02785 -.09604 .09249 173.68 708.24)" d="m-659.73 415.96c9.0034 0.7573 176.22 6.9701 180.07 15.146s-97.994 140.95-103.15 148.37-94.148 149.13-103.15 148.37-73.072-155.34-76.917-163.52-82.075-156.1-76.917-163.52 171.07 14.389 180.07 15.146z"/>
    <path transform="matrix(.01028 .02785 .09604 -.09249 106.87 822.85)" d="m-659.73 415.96c9.0034 0.7573 176.22 6.9701 180.07 15.146s-97.994 140.95-103.15 148.37-94.148 149.13-103.15 148.37-73.072-155.34-76.917-163.52-82.075-156.1-76.917-163.52 171.07 14.389 180.07 15.146z"/>
   </g>
  </g>
  <g transform="translate(1748.4 28.795)" stroke-linecap="round" stroke-linejoin="bevel" stroke-width="8">
   <path d="m204.38 510.74h38.095a16.667 11.46 0 0 1 16.667 11.46v48.508a16.667 11.46 0 0 1 -16.667 11.46h-38.095a16.667 11.46 0 0 1 -16.667 -11.46v-48.508a16.667 11.46 0 0 1 16.667 -11.46"/>
   <path d="m205.98 513.73h34.905a15.271 10.501 0 0 1 15.271 10.501v44.447a15.271 10.501 0 0 1 -15.271 10.501h-34.905a15.271 10.501 0 0 1 -15.271 -10.501v-44.447a15.271 10.501 0 0 1 15.271 -10.501"/>
   <g transform="translate(-268.77 -2.9349)">
    <g transform="translate(0 1.459)">
     <path d="m493.97 532.44c-3.2316-0.12429-2.3388 8.179-5.5625 8.4375-3.1844 0.25536-3.5274-8.0822-6.6563-7.4375-3.1675 0.65271-0.33809 8.4775-3.4062 9.5-3.0308 1.01-5.3664-6.9998-8.25-5.625-2.9192 1.3918 1.7343 8.3355-1 10.062-2.701 1.706-6.9042-5.525-9.375-3.5-0.28377 0.23255-0.44534 0.49793-0.53125 0.8125v1.0625c0.4321 2.5658 3.6676 6.3257 1.9375 8.125-0.4984 0.51834-1.162 0.60115-1.9375 0.46875v15.812c0 5.8173 6.7898 10.5 15.25 10.5h34.906c8.4602 0 15.281-4.6827 15.281-10.5v-14.219c-0.22367-0.48924-0.18607-1.0488 0-1.6562v-7.75c-2.4054 1.0707-5.3547 4.0663-7.1875 2.6875-2.5529-1.9205 2.707-8.3766-0.0625-9.9688-2.8037-1.6119-5.8692 6.113-8.8437 4.8438-2.9383-1.2538 0.63258-8.8043-2.4375-9.6875-3.108-0.89406-4.2456 7.3642-7.4375 6.8438-3.153-0.51413-1.4953-8.6897-4.6875-8.8125z"/>
     <path d="m491.89 548.25c-15.641 0-28.651 11.217-31.5 26.031 2.3247 3.7517 7.738 6.375 14.062 6.375h34.906c6.3451 0 11.75-2.6349 14.062-6.4062-2.861-14.799-15.901-26-31.531-26z"/>
     <path d="m463.31 549.38c-1.8186-0.12053-1.3988 4.5879-3.2188 4.6875-0.35523 0.01943-0.6563-0.16236-0.90625-0.4375v16.531c0 5.8173 6.821 10.5 15.281 10.5h11.438c-0.27013-0.25236-0.42968-0.52152-0.40625-0.875 0.12053-1.8186 4.8496-1.3676 4.75-3.1875s-4.7443-0.83035-5.0625-2.625 4.376-2.4755 3.8438-4.2188-4.7928 0.29134-5.5312-1.375 3.6527-3.4348 2.7188-5-4.603 1.4412-5.7188 0 2.7189-4.2038 1.4375-5.5-4.103 2.5073-5.5312 1.375 1.6481-4.7356 0.09375-5.6875-3.3735 3.4139-5.0312 2.6562 0.42447-5.0102-1.3125-5.5625-2.4591 4.1201-4.25 3.7812-0.7751-4.942-2.5938-5.0625z"/>
    </g>
    <path d="m520.5 550.83c1.8186-0.12053 1.3988 4.5879 3.2188 4.6875 0.35523 0.01943 0.6563-0.16236 0.90625-0.4375v16.531c0 5.8173-6.821 10.5-15.281 10.5h-11.438c0.27013-0.25236 0.42968-0.52152 0.40625-0.875-0.12053-1.8186-4.8496-1.3676-4.75-3.1875s4.7443-0.83035 5.0625-2.625-4.376-2.4755-3.8438-4.2188 4.7928 0.29134 5.5312-1.375-3.6527-3.4348-2.7188-5 4.603 1.4412 5.7188 0-2.7189-4.2038-1.4375-5.5 4.103 2.5073 5.5312 1.375-1.6481-4.7356-0.09375-5.6875 3.3735 3.4139 5.0312 2.6562-0.42447-5.0102 1.3125-5.5625 2.4591 4.1201 4.25 3.7812 0.7751-4.942 2.5938-5.0625z"/>
   </g>
  </g>
  <g transform="translate(1193.5 -26.668)">
   <path d="m669.88 454.91v71.438h8.375v-71.438h-8.375z" stroke-linecap="round" stroke-linejoin="bevel" stroke-width="8"/>
   <path d="m651.25 469.8v10.781h71.406v-10.781h-71.406z" stroke-linecap="round" stroke-linejoin="bevel" stroke-width="8"/>
   <g transform="translate(0 3.2051)">
    <path d="m686.22 490.18v23.397" fill-rule="evenodd"/>
    <path transform="matrix(.5445 0 0 .5445 271.86 195.41)" d="m772.74 541.59a11.962 11.962 0 1 1 -23.924 0 11.962 11.962 0 1 1 23.924 0z" stroke-linecap="round" stroke-linejoin="bevel" stroke-width="2"/>
   </g>
  </g>
  <g transform="translate(1737 28.795)" stroke-linecap="round" stroke-linejoin="bevel">
   <g transform="translate(-.24387)">
    <path d="m-58.325 399.23h38.095a16.667 11.46 0 0 1 16.667 11.46v48.508a16.667 11.46 0 0 1 -16.667 11.46h-38.095a16.667 11.46 0 0 1 -16.667 -11.46v-48.508a16.667 11.46 0 0 1 16.667 -11.46" stroke-width="8"/>
    <path d="m-39.278 402.09a31.728 8.7794 0 0 1 31.728 8.7794v47.723a31.728 8.7794 0 0 1 -31.728 8.7794 31.728 8.7794 0 0 1 -31.728 -8.7794v-47.723a31.728 8.7794 0 0 1 31.728 -8.7794" stroke-width="2"/>
    <path d="m-39.278 406.21a26.232 6.3772 0 0 1 26.232 6.3772v34.665a26.232 6.3772 0 0 1 -26.232 6.3772 26.232 6.3772 0 0 1 -26.232 -6.3772v-34.665a26.232 6.3772 0 0 1 26.232 -6.3772" stroke-width="2"/>
    <g stroke-width="2">
     <path transform="translate(1.992 .10573)" d="m-54.963 458.76a3.4352 3.4352 0 1 1 -6.8703 0 3.4352 3.4352 0 1 1 6.8703 0z"/>
     <path transform="translate(36.248 .10573)" d="m-54.963 458.76a3.4352 3.4352 0 1 1 -6.8703 0 3.4352 3.4352 0 1 1 6.8703 0z"/>
    </g>
   </g>
   <path d="m-58.568 399.23c-9.2333 0-16.656 5.0886-16.656 11.438v15.125c9.4004 5.8664 21.919 9.4688 35.688 9.4688s26.318-3.6023 35.719-9.4688v-15.125c0-6.3489-7.4229-11.438-16.656-11.438h-38.094z" stroke-width="8"/>
  </g>
  <g transform="translate(1736.9 28.795)">
   <g transform="matrix(.83923 0 0 .83923 -15.9 40.147)" stroke-linecap="round" stroke-linejoin="bevel" stroke-width="2">
    <path d="m-64.12 253.41h3.8864v10.974h-3.8864z"/>
    <path d="m-71.741 257.22h3.8864v7.1676h-3.8864z"/>
    <path d="m-56.499 248.34h3.8864v16.049h-3.8864z"/>
    <path d="m-48.878 244.95h3.8864v19.432h-3.8864z"/>
    <path d="m-79.363 259.33h3.8864v5.053h-3.8864z"/>
   </g>
   <text x="-49.50323" y="261.30179" font-family="Bitstream Vera Sans" font-size="16">
    <tspan x="-49.50323" y="261.30179">cingular</tspan>
   </text>
   <g stroke-linecap="round" stroke-linejoin="bevel">
    <path transform="matrix(.50992 0 0 -.50992 -33.36 387.55)" d="m158.17 262.35a26.221 13.533 0 1 1 -52.442 0" stroke-width="3.9222"/>
    <path transform="matrix(.33706 0 0 -.30897 -10.55 338.46)" d="m158.17 262.35a26.221 13.533 0 1 1 -52.442 0" stroke-width="6.1976"/>
    <path transform="matrix(.19949 0 0 -.1415 7.6012 298.15)" d="m158.17 262.35a26.221 13.533 0 1 1 -52.442 0" stroke-width="11.904"/>
   </g>
   <text x="67.96719" y="261.77167" font-family="Bitstream Vera Sans" font-size="18">
    <tspan x="67.96719" y="261.77167">9:41 AM</tspan>
   </text>
   <g transform="matrix(.69548 0 0 .69548 109.7 111.85)" stroke-linecap="round" stroke-linejoin="bevel">
    <path d="m175.87 192.96h52.58v21.757h-52.58z" stroke-width="2.8757"/>
    <path d="m180.55 197.08h43.216v13.505h-43.216z" stroke-width="2"/>
    <path d="m228.58 200.19h6.7688v7.2894h-6.7688z" stroke-width="2"/>
   </g>
  </g>
  <text x="1956.0989" y="842.69562" font-size="15">
   <tspan x="1956.0989" y="842.69562">iPod</tspan>
  </text>
  <text x="1864.3191" y="842.69562" font-size="15">
   <tspan x="1864.3191" y="842.69562">Web</tspan>
  </text>
  <text x="1774.311" y="842.69562" font-size="15">
   <tspan x="1774.311" y="842.69562">Mail</tspan>
  </text>
  <text x="1673.8599" y="842.69562" font-size="15">
   <tspan x="1673.8599" y="842.69562">Phone</tspan>
  </text>
  <text x="1940.9121" y="632.43921" font-size="15">
   <tspan x="1940.9121" y="632.43921">Settings</tspan>
  </text>
  <text x="1858.4597" y="632.78284" font-size="15">
   <tspan x="1858.4597" y="632.78284">Notes</tspan>
  </text>
  <text x="1751.0237" y="632.78284" font-size="15">
   <tspan x="1751.0237" y="632.78284">Calculator</tspan>
  </text>
  <text x="1676.6614" y="632.78284" font-size="15">
   <tspan x="1676.6614" y="632.78284">Clock</tspan>
  </text>
  <text x="1667.345" y="521.24438" font-size="15">
   <tspan x="1667.345" y="521.24438">YouTube</tspan>
  </text>
  <text x="1764.7749" y="521.24438" font-size="15">
   <tspan x="1764.7749" y="521.24438">Stocks</tspan>
  </text>
  <text x="1860.364" y="520.90076" font-size="15">
   <tspan x="1860.364" y="520.90076">Maps</tspan>
  </text>
  <text x="1940.0039" y="521.24438" font-size="15">
   <tspan x="1940.0039" y="521.24438">Weather</tspan>
  </text>
  <text x="1942.6333" y="408.08023" font-size="15">
   <tspan x="1942.6333" y="408.08023">Camera</tspan>
  </text>
  <text x="1854.7976" y="408.08023" font-size="15">
   <tspan x="1854.7976" y="408.08023">Photos</tspan>
  </text>
  <text x="1755.4036" y="408.08023" font-size="15">
   <tspan x="1755.4036" y="408.08023">Calendar</tspan>
  </text>
  <text x="1682.5024" y="408.08023" font-size="15">
   <tspan x="1682.5024" y="408.08023">Text</tspan>
  </text>
 </g>
 <g transform="matrix(.95598 .29342 -.54958 .87736 -1005.7 -589.75)">
  <path d="m1653.9 130.43h361.37a42.893 43.429 0 0 1 42.893 43.429v772.4a42.893 43.429 0 0 1 -42.893 43.429h-361.37a42.893 43.429 0 0 1 -42.893 -43.429v-772.4a42.893 43.429 0 0 1 42.893 -43.429" stroke="url(#ak)" stroke-linecap="round" stroke-linejoin="bevel" stroke-width="15.88"/>
  <path d="m1796.7 200.64h75.9a5.8353 6.923 0 0 1 5.8353 6.923 5.8353 6.923 0 0 1 -5.8353 6.923h-75.9a5.8353 6.923 0 0 1 -5.8353 -6.923 5.8353 6.923 0 0 1 5.8353 -6.923" fill="#171717" stroke="url(#aj)" stroke-linecap="round" stroke-linejoin="bevel" stroke-width="3.4949"/>
  <path d="m1663.8 267.42h341.74a21.434 17.237 0 0 1 21.434 17.237v550.65a21.434 17.237 0 0 1 -21.434 17.237h-341.74a21.434 17.237 0 0 1 -21.434 -17.237v-550.65a21.434 17.237 0 0 1 21.434 -17.237" fill="url(#ai)" stroke="#575757" stroke-linecap="round" stroke-linejoin="bevel" stroke-width="4.2686"/>
  <g transform="translate(1736.9 28.795)">
   <path transform="matrix(.7 0 0 .7 201.71 211.88)" d="m-91.429 966.65a57.143 57.143 0 1 1 -114.29 0 57.143 57.143 0 1 1 114.29 0z" stroke="#373737" stroke-linecap="round" stroke-linejoin="bevel" stroke-width="2.8571"/>
   <path d="m59.574 900.63c5.1258 16.181 20.255 27.906 38.125 27.906s33.03-11.725 38.156-27.906c-12.196 2.0966-24.978 3.2188-38.156 3.2188-13.167 0-25.938-1.1255-38.125-3.2188z" fill="#fffcfc" fill-opacity=".37647"/>
   <path d="m93.174 871.21h9.0813a9.9327 6.8298 0 0 1 9.9327 6.8298v15.287a9.9327 6.8298 0 0 1 -9.9327 6.8298h-9.0813a9.9327 6.8298 0 0 1 -9.9327 -6.8298v-15.287a9.9327 6.8298 0 0 1 9.9327 -6.8298" fill="none" stroke="#bebebe" stroke-linecap="round" stroke-linejoin="bevel" stroke-width="3.5"/>
  </g>
  <path d="m1861.4 539.54h38.095a16.667 11.46 0 0 1 16.667 11.46v48.508a16.667 11.46 0 0 1 -16.667 11.46h-38.095a16.667 11.46 0 0 1 -16.667 -11.46v-48.508a16.667 11.46 0 0 1 16.667 -11.46" fill="url(#ah)"/>
  <g transform="translate(1778.1 74.143)">
   <path d="m-7.5238 242.36h38.095a16.667 11.46 0 0 1 16.667 11.46v48.508a16.667 11.46 0 0 1 -16.667 11.46h-38.095a16.667 11.46 0 0 1 -16.667 -11.46v-48.508a16.667 11.46 0 0 1 16.667 -11.46" fill="url(#ag)"/>
   <g transform="translate(.19938)" font-family="Bitstream Vera Sans" font-size="11">
    <text transform="matrix(1.0461 0 0 1.0461 .55043 -11.788)" x="-11.89723" y="253.19632" filter="url(#k)">
     <tspan x="-11.89723" y="253.19632">Tuesday</tspan>
    </text>
    <text x="-10.87161" y="252.95073" fill="#fffcfc">
     <tspan x="-10.87161" y="252.95073">Tuesday</tspan>
    </text>
   </g>
   <text x="-3.56993" y="301.19553" font-family="Bitstream Vera Sans" font-size="48">
    <tspan x="-3.56993" y="301.19553">9</tspan>
   </text>
  </g>
  <g transform="translate(1765.7 35.757)">
   <path d="m-87.293 280.75h38.095a16.667 11.46 0 0 1 16.667 11.46v48.508a16.667 11.46 0 0 1 -16.667 11.46h-38.095a16.667 11.46 0 0 1 -16.667 -11.46v-48.508a16.667 11.46 0 0 1 16.667 -11.46" fill="url(#af)"/>
   <path d="m-67.428 292.29c-14.343 0-25.969 8.479-25.969 18.938 0 4.8139 2.4704 9.2191 6.5312 12.562l-1.8438 2.75c-0.43265 0.61575-8.9276 12.085-8.6562 12.312s13.39-7.3925 14.094-7.7812c0.24707-0.13643 2.8078-1.4897 5-2.6562 3.309 1.1145 6.9615 1.7812 10.844 1.7812 14.343 0 26-8.5103 26-18.969s-11.657-18.938-26-18.938z" fill="#fff"/>
   <text x="-87.98504" y="318.81519" fill="#0f0" font-family="Geneva" font-size="20" font-weight="bold">
    <tspan x="-87.98504" y="318.81519">SMS</tspan>
   </text>
  </g>
  <g transform="translate(1785.1 74.143)">
   <path d="m76.286 242.36h38.095a16.667 11.46 0 0 1 16.667 11.46v48.508a16.667 11.46 0 0 1 -16.667 11.46h-38.095a16.667 11.46 0 0 1 -16.667 -11.46v-48.508a16.667 11.46 0 0 1 16.667 -11.46" fill="#0ff"/>
   <path transform="translate(-4.3306 -1.0826)" d="m99.604 267.44a15.969 7.0373 0 1 1 -31.938 0 15.969 7.0373 0 1 1 31.938 0z" fill="#e6e6e6" filter="url(#a)"/>
   <path transform="translate(28.149 21.653)" d="m99.604 267.44a15.969 7.0373 0 1 1 -31.938 0 15.969 7.0373 0 1 1 31.938 0z" fill="#e6e6e6" filter="url(#a)"/>
   <path transform="translate(27.066 -11.909)" d="m99.604 267.44a15.969 7.0373 0 1 1 -31.938 0 15.969 7.0373 0 1 1 31.938 0z" fill="#e6e6e6" filter="url(#a)"/>
   <path d="m101.65625,294-7.09375,3.25-.28125.71875c-.68329,1.78539-1.41377,3.56912-2.125,5.34375-.15786-.03773-.3109-.08657-.46875-.125-1.21188-.20111-2.43283-.17142-3.65625-.1875h-3.53125c-1.07934.01971-2.14035-.01855-3.21875-.03125-1.2752-.1432-1.96957-.94221-2.875-1.75-1.18353-.91181-2.55885-1.55797-3.875-2.25-.16671-.10645-.33329-.20606-.5-.3125l-6.625,4.28125c.1725.10311.3275.2094.5.3125 1.28153.66067 2.61303,1.28893 3.8125,2.09375 .94529.93087 1.73906,1.91178 3.09375,2.21875 1.0919.06787 2.20789.15795 3.3125.09375l3.53125-.03125c1.19677.01032 2.40054.01342 3.59375.125 1.28287.23033 2.57418.36734 3.71875,1.0625 .6691.31001 1.31732.62506 1.96875.96875 .34069,1.32416.60277,2.66422 1.28125,3.875l6.9375-4.0625c-.60014-.726-.83517-1.58598-1.03125-2.46875l2.03125-.90625c.04325-.0598.08129-.12735.125-.1875 1.2648-.06827 2.54548.00119 3.8125.09375 1.70751.257 3.24939,1.08762 4.8125,1.78125 1.34114.73828 2.29765.48825 3.65625.25 4.20658-1.71279 7.20273-4.0016 10.46875-6.71875l.5-.375-6.90625,2.78125c-.36252-.01017-.74428-.10583-1.21875-.3125-1.63579-.69713-3.27971-1.51213-5.03125-1.84375-1.87359-.22517-3.73534-.38555-5.625-.15625-2.40771.47036-4.75901,1.3364-6.84375,2.65625 .17961-1.24985.61413-2.47765 1-3.6875 .85684-1.91575 1.63299-3.86194 2.40625-5.8125 .11387-.23354.22988-.45397.34375-.6875z" fill="#008000"/>
   <path transform="matrix(.5782 0 0 .5782 69.405 98.585)" d="m84.447 276.64c0.35149 0.47225-6.8182 9.2829-6.5308 9.7967 0.30022 0.53662 12.044-0.07102 12.288 0.49362 0.23311 0.54058-8.7752 7.4603-8.614 8.0265 0.16838 0.59139 11.736 2.7086 11.843 3.3141 0.10216 0.57977-10.259 5.2355-10.233 5.8236 0.02746 0.61428 10.795 5.3421 10.759 5.9559-0.0343 0.5877-11.19 2.7284-11.3 3.3068-0.11495 0.60405 9.2722 7.6876 9.0958 8.2767-0.16891 0.56395-11.518 0.07432-11.758 0.61167-0.25115 0.56126 7.2494 9.6187 6.9419 10.151-0.29441 0.50979-11.224-2.5838-11.582-2.1164-0.37382 0.48821 4.8358 11.031 4.4138 11.478-0.40404 0.42816-10.326-5.1027-10.782-4.7304-0.47633 0.38884 2.1614 11.849 1.6477 12.187-0.49189 0.32343-8.8708-7.3464-9.4004-7.0894-0.55317 0.26851-0.62943 12.028-1.2073 12.238-0.55322 0.20128-6.9374-9.1941-7.512-9.0661-0.60018 0.1337-3.3864 11.559-3.9971 11.63-0.58472 0.06828-4.6301-10.546-5.2188-10.554-0.61484-0.00831-5.9607 10.466-6.5715 10.395-0.58471-0.06841-2.0732-11.33-2.6441-11.473-0.59635-0.14988-8.2138 8.8096-8.7916 8.5992-0.55317-0.20141 0.5955-11.502 0.07304-11.774-0.54571-0.28337-10.024 6.6779-10.538 6.3399-0.49181-0.32356 3.2321-11.055 2.7863-11.44-0.46565-0.40157-11.294 4.1862-11.716 3.7389-0.40394-0.42825 5.6944-10.012 5.3493-10.489-0.36049-0.49814-11.955 1.4688-12.262 0.93626-0.29429-0.50986 7.8498-8.4286 7.624-8.9722-0.23589-0.56784-11.971-1.3277-12.148-1.9168-0.16877-0.56399 9.582-6.3911 9.4876-6.9722-0.09858-0.60694-11.342-4.0527-11.378-4.6666-0.03416-0.58771 10.798-4.0091 10.84-4.5963 0.04405-0.61331-10.102-6.5592-9.9952-7.1648 0.1023-0.57974 11.431-1.4109 11.608-1.9726 0.1843-0.58662-8.3171-8.7121-8.0735-9.2767 0.23324-0.54052 11.448 1.2633 11.75 0.7575 0.31461-0.52831-6.0837-10.395-5.7165-10.888 0.3516-0.47216 10.848 3.8694 11.258 3.4467 0.42797-0.44152-3.5224-11.518-3.0513-11.913 0.45101-0.37835 9.6636 6.2669 10.16 5.9501 0.51825-0.33092-0.77122-12.02-0.2217-12.296 0.52611-0.26414 7.9579 8.3266 8.5138 8.1327 0.5806-0.20248 2.0216-11.874 2.6199-12.016 0.57284-0.1357 5.8232 9.9374 6.4087 9.8769 0.61164-0.06312 4.7054-11.088 5.3203-11.087 0.5887 7e-5 3.3745 11.012 3.9582 11.089 0.60972 0.07963 7.1355-9.7036 7.7338-9.5617 0.57281 0.13583 0.74388 11.494 1.2943 11.703 0.57492 0.21809 9.181-7.7964 9.7304-7.5204 0.52605 0.26427-1.9268 11.356-1.4394 11.686 0.50912 0.3448 10.731-5.469 11.202-5.0737 0.45092 0.37846-4.4936 10.605-4.0955 11.039 0.41588 0.45292 11.703-2.8468 12.071-2.3535z" fill="url(#ae)"/>
   <path transform="translate(-12.22 6.0742)" d="m122.88 269.6a16.24 16.24 0 1 1 -32.48 0 16.24 16.24 0 1 1 32.48 0z" fill="url(#o)"/>
  </g>
  <g transform="translate(1792.7 74.143)">
   <path d="m160.1 242.36h38.095a16.667 11.46 0 0 1 16.667 11.46v48.508a16.667 11.46 0 0 1 -16.667 11.46h-38.095a16.667 11.46 0 0 1 -16.667 -11.46v-48.508a16.667 11.46 0 0 1 16.667 -11.46" fill="url(#ad)"/>
   <path transform="translate(1.7162 -5.4367)" d="m202.64 283.51a25.212 25.212 0 1 1 -50.424 0 25.212 25.212 0 1 1 50.424 0z" fill="url(#n)"/>
   <path transform="matrix(1.3421 0 0 1.3421 -58.034 -95.787)" d="m185.67 278.57a8.9538 8.9538 0 1 1 -17.908 0 8.9538 8.9538 0 1 1 17.908 0z" fill="url(#m)" stroke="#514e4e" stroke-linecap="round" stroke-linejoin="bevel" stroke-width=".7451"/>
  </g>
  <path d="m1861.4 428.24h38.095a16.667 11.46 0 0 1 16.667 11.46v48.508a16.667 11.46 0 0 1 -16.667 11.46h-38.095a16.667 11.46 0 0 1 -16.667 -11.46v-48.508a16.667 11.46 0 0 1 16.667 -11.46" fill="url(#ac)"/>
  <g transform="translate(1774.1 41.559)">
   <g transform="translate(4.0406 38.386)">
    <path d="m-7.624 348.08h38.095a16.667 11.46 0 0 1 16.667 11.46v48.508a16.667 11.46 0 0 1 -16.667 11.46h-38.095a16.667 11.46 0 0 1 -16.667 -11.46v-48.508a16.667 11.46 0 0 1 16.667 -11.46" fill="#00f"/>
    <path d="m-7.6233 348.08c-9.2333 0-16.656 5.0886-16.656 11.438v15.125c9.4004 5.8664 21.919 9.4688 35.688 9.4688s26.318-3.6023 35.719-9.4688v-15.125c0-6.3489-7.4229-11.438-16.656-11.438h-38.094z" fill="#fff" fill-opacity=".22152"/>
   </g>
   <path d="m-19.051 428.17c2.6365 0.65913 4.0159-2.1821 6.5975-2.8275 3.3306-0.83266 4.3802 1.0815 5.655 2.3563 2.6053 2.6053 5.4306 0.32552 6.1263-1.4138l2.8275-7.0688c0.57771-1.4443 4.7706-4.0492 5.655-4.7125 2.7251-2.0438 5.0396 0.43616 6.1263 1.885 1.4576 1.9434 2.3008 3.4925 2.8275 6.1263 0.54624 2.7312 3.3445 3.0403 5.655 1.885 2.76-1.38 1.496-3.9084 4.7125-4.7125 2.2281-0.55703 2.9494 3.0327 5.655 2.3563 2.7642-0.69104 4.744-4.3043 5.655-6.1263 1.2032-2.4064 2.8602-4.3066 3.77-6.1263 0.94512-1.8902 3.2962 2.8223 4.2413 4.7125 0.91177 1.8236 3.1028 2.1603 4.2413 3.2988" fill="none" stroke="#fff3f3"/>
  </g>
  <g transform="translate(1793.4 79.945)">
   <path d="m159.36 348.08h38.095a16.667 11.46 0 0 1 16.667 11.46v48.508a16.667 11.46 0 0 1 -16.667 11.46h-38.095a16.667 11.46 0 0 1 -16.667 -11.46v-48.508a16.667 11.46 0 0 1 16.667 -11.46" fill="url(#ab)"/>
   <path d="m159.36 348.08c-9.2333 0-16.656 5.0886-16.656 11.438v15.125c9.4004 5.8664 21.919 9.4688 35.688 9.4688s26.318-3.6023 35.719-9.4688v-15.125c0-6.3489-7.4229-11.438-16.656-11.438h-38.094z" fill="url(#aa)"/>
   <g transform="translate(.24529)">
    <path transform="matrix(.79795 0 0 .79795 -141.84 48.458)" d="m387.9 386.67c0.34712-0.16713 5.9141 4.5708 6.2831 4.4601s2.406-7.1315 2.7878-7.1832 4.2122 6.1747 4.5974 6.1834 4.492-6.039 4.871-5.9702 2.098 7.1741 2.4616 7.3014 6.1383-4.3553 6.4775-4.1727-0.22166 7.4713 0.08484 7.7047 7.1837-2.2453 7.4499-1.9668-2.5196 7.0371-2.3002 7.3538 7.526 0.08448 7.6931 0.4316-4.5709 5.9141-4.4601 6.2831 7.1315 2.406 7.1832 2.7878-6.1747 4.2122-6.1834 4.5974 6.039 4.492 5.9702 4.8711-7.1741 2.098-7.3014 2.4616 4.3553 6.1383 4.1727 6.4775-7.4713-0.22166-7.7047 0.08485 2.2453 7.1837 1.9668 7.4499-7.0371-2.5196-7.3538-2.3002-0.08448 7.526-0.4316 7.6931-5.9141-4.5708-6.2831-4.4601-2.406 7.1315-2.7878 7.1832-4.2122-6.1747-4.5974-6.1834-4.492 6.039-4.8711 5.9702-2.098-7.1741-2.4616-7.3014-6.1383 4.3553-6.4775 4.1727 0.22166-7.4713-0.08485-7.7047-7.1837 2.2453-7.4499 1.9668 2.5196-7.0371 2.3002-7.3538-7.526-0.08448-7.6931-0.4316 4.5708-5.9141 4.4601-6.2831-7.1315-2.406-7.1832-2.7878 6.1747-4.2122 6.1834-4.5974-6.039-4.492-5.9702-4.8711 7.1741-2.098 7.3014-2.4616-4.3553-6.1383-4.1727-6.4775 7.4713 0.22166 7.7047-0.08485-2.2453-7.1837-1.9668-7.4499 7.0372 2.5196 7.3538 2.3002 0.08447-7.526 0.43159-7.6931z" fill="#ff6500" filter="url(#j)"/>
    <path transform="matrix(.68512 0 0 .68512 -48.492 41.531)" d="m356.58 492.23a25.759 25.759 0 1 1 -51.518 0 25.759 25.759 0 1 1 51.518 0z" fill="url(#z)" stroke="#ff9808" stroke-linecap="round" stroke-linejoin="bevel" stroke-width="1.663"/>
    <text x="165.12912" y="416.19299" fill="#fff" font-family="Bitstream Vera Sans" font-size="15.973">
     <tspan x="165.12912" y="416.19299">73</tspan>
    </text>
   </g>
  </g>
  <g transform="translate(1725.8 28.795)">
   <path d="m-47.439 510.74h38.095a16.667 11.46 0 0 1 16.667 11.46v48.508a16.667 11.46 0 0 1 -16.667 11.46h-38.095a16.667 11.46 0 0 1 -16.667 -11.46v-48.508a16.667 11.46 0 0 1 16.667 -11.46" fill="#1a1a1a"/>
   <path d="m-47.438 510.74c-9.2333 0-16.656 5.0886-16.656 11.438v15.125c9.4004 5.8664 21.919 9.4688 35.688 9.4688s26.318-3.6023 35.719-9.4688v-15.125c0-6.3489-7.4229-11.438-16.656-11.438h-38.094z" fill="url(#y)"/>
   <path transform="translate(543.82)" d="m-545.16 543.86a27.991 27.325 0 1 1 -55.982 0 27.991 27.325 0 1 1 55.982 0z" fill="#fff"/>
   <path transform="matrix(.10684 -.013379 .31237 .099752 -250.12 473.51)" d="m20.66 663.82c1.9046 1.7892 38.69 33.24 38.093 35.784s-47.535 14.342-50.036 15.097-48.132 16.886-50.036 15.097 11.346-48.337 11.944-50.881 9.4418-50.127 11.944-50.881 36.188 33.995 38.093 35.784z"/>
   <path transform="matrix(.021668 -.08425 .18882 -.13486 -161.52 640.86)" d="m20.66 663.82c1.9046 1.7892 38.69 33.24 38.093 35.784s-47.535 14.342-50.036 15.097-48.132 16.886-50.036 15.097 11.346-48.337 11.944-50.881 9.4418-50.127 11.944-50.881 36.188 33.995 38.093 35.784z"/>
   <path d="m-27.608 544.06 10.827-22.194" fill="none" stroke="#fe0000" stroke-linecap="round"/>
  </g>
  <g transform="translate(1725.4 21.103)">
   <path d="m-47.048 730.78h38.095a16.667 11.46 0 0 1 16.667 11.46v48.508a16.667 11.46 0 0 1 -16.667 11.46h-38.095a16.667 11.46 0 0 1 -16.667 -11.46v-48.508a16.667 11.46 0 0 1 16.667 -11.46" fill="url(#x)"/>
   <g transform="matrix(.2582 -.2335 .2335 .2582 -116.76 571.49)" stroke="#fff" stroke-linecap="round" stroke-linejoin="bevel">
    <g fill="#fff" stroke-width="1.5">
     <path transform="matrix(0 1 -1 0 455.76 708.35)" d="m-145.15 633.89a35.815 32.045 0 1 1 -71.63 0h35.815z"/>
     <path transform="matrix(0 1 -1 0 455.76 827.1)" d="m-145.15 633.89a35.815 32.045 0 1 1 -71.63 0h35.815z"/>
    </g>
    <path transform="matrix(0 1.0298 -.65413 0 204.81 771.17)" d="m-111.22 604.67a67.86 53.723 0 1 1 -135.72 -1e-5" fill="none" stroke-width="30.461"/>
   </g>
  </g>
  <g transform="translate(1734.1 21.103)">
   <path d="m36.396 730.02h38.095a16.667 11.46 0 0 1 16.667 11.46v48.508a16.667 11.46 0 0 1 -16.667 11.46h-38.095a16.667 11.46 0 0 1 -16.667 -11.46v-48.508a16.667 11.46 0 0 1 16.667 -11.46" fill="#0059ff"/>
   <path d="m36.397 730.02c-9.2333 0-16.656 5.0886-16.656 11.438v15.125c9.4004 5.8664 21.919 9.4688 35.688 9.4688s26.318-3.6023 35.719-9.4688v-15.125c0-6.3489-7.4229-11.438-16.656-11.438h-38.094z" fill="#fff" fill-opacity=".21961"/>
   <path transform="matrix(.91667 0 0 1.6667 14.329 -594.5)" d="m43.986 829.77a15.995 3.9987 0 1 1 -31.99 0 15.995 3.9987 0 1 1 31.99 0z" fill="#fff" filter="url(#i)"/>
   <path transform="matrix(.70833 0 0 1.2879 55.482 -293.34)" d="m43.986 829.77a15.995 3.9987 0 1 1 -31.99 0 15.995 3.9987 0 1 1 31.99 0z" fill="#fff" filter="url(#h)"/>
   <g transform="translate(-81.875 3.2766)">
    <path d="m111.96 745.79h50.708v33.323h-50.708z" fill="#000001" filter="url(#g)"/>
    <path d="m113.99 747.13h46.652v30.657h-46.652z" fill="#fff"/>
   </g>
   <path transform="matrix(0 .26217 -.47811 0 430.5 813.38)" d="m-155.95 784.45c0 2.4241-39.887 23.029-41.986 24.241s-39.887 25.453-41.986 24.241 0-46.058 0-48.482-2.0993-47.27 0-48.482 39.887 23.029 41.986 24.241 41.986 21.817 41.986 24.241z" fill="none" stroke="#000" stroke-linecap="round" stroke-linejoin="bevel" stroke-width="2.8245"/>
  </g>
  <g transform="translate(1748.1 21.103)">
   <path d="m204.63 729.71h38.095a16.667 11.46 0 0 1 16.667 11.46v48.508a16.667 11.46 0 0 1 -16.667 11.46h-38.095a16.667 11.46 0 0 1 -16.667 -11.46v-48.508a16.667 11.46 0 0 1 16.667 -11.46" fill="#f60"/>
   <path d="m204.64 729.71c-9.2333 0-16.656 5.0886-16.656 11.438v15.125c9.4004 5.8664 21.919 9.4688 35.688 9.4688s26.318-3.6023 35.719-9.4688v-15.125c0-6.3489-7.4229-11.438-16.656-11.438h-38.094z" fill="url(#w)"/>
   <g transform="translate(1.7381 -2.1976)">
    <path d="m211.08 742.72h21.72a3.2143 3.5714 0 0 1 3.2143 3.5714v42.659a3.2143 3.5714 0 0 1 -3.2143 3.5714h-21.72a3.2143 3.5714 0 0 1 -3.2143 -3.5714v-42.659a3.2143 3.5714 0 0 1 3.2143 -3.5714" fill="#fff"/>
    <path transform="matrix(1.098 0 0 1.098 -22.173 -76.583)" d="m231.43 779.33a9.1071 9.1071 0 1 1 -18.214 0 9.1071 9.1071 0 1 1 18.214 0z" fill="#f60"/>
    <path transform="matrix(1.2632 0 0 1.2632 -60.236 -204.36)" d="m226.79 778.61a3.3929 3.3929 0 1 1 -6.7857 0 3.3929 3.3929 0 1 1 6.7857 0z" fill="#fff"/>
    <path d="m211.41 746.29h21.071v15.714h-21.071z" fill="#ff8d41"/>
   </g>
  </g>
  <g transform="translate(1733.8 28.795)">
   <path d="m36.762 510.74h38.095a16.667 11.46 0 0 1 16.667 11.46v48.508a16.667 11.46 0 0 1 -16.667 11.46h-38.095a16.667 11.46 0 0 1 -16.667 -11.46v-48.508a16.667 11.46 0 0 1 16.667 -11.46" fill="url(#v)"/>
   <g transform="translate(.1713,-.82071)">
    <path transform="translate(757.63 116.41)" d="m-673.97 415.88a12.233 12.233 0 1 1 -24.465 0 12.233 12.233 0 1 1 24.465 0z" fill="url(#b)" stroke="#3f3f3f" stroke-linecap="round" stroke-linejoin="bevel" stroke-width="2"/>
    <text x="65.64871" y="541.04822" fill="#fff" font-family="Bitstream Vera Sans" font-size="32">
     <tspan x="65.64871" y="541.04822">-</tspan>
    </text>
    <path transform="translate(726.06 116.41)" d="m-673.97 415.88a12.233 12.233 0 1 1 -24.465 0 12.233 12.233 0 1 1 24.465 0z" fill="url(#b)" stroke="#3f3f3f" stroke-linecap="round" stroke-linejoin="bevel" stroke-width="2"/>
    <text x="32.31331" y="537.92517" fill="#fff" font-family="Bitstream Vera Sans" font-size="32">
     <tspan x="32.31331" y="537.92517" font-size="18">+</tspan>
    </text>
    <path transform="translate(726.06 146.4)" d="m-673.97 415.88a12.233 12.233 0 1 1 -24.465 0 12.233 12.233 0 1 1 24.465 0z" fill="url(#b)" stroke="#3f3f3f" stroke-linecap="round" stroke-linejoin="bevel" stroke-width="2"/>
    <text x="34.56331" y="567.19391" fill="#fff" font-family="Bitstream Vera Sans" font-size="32">
     <tspan x="34.56331" y="567.19391" font-size="18">x</tspan>
    </text>
    <path transform="translate(757.63 146.4)" d="m-673.97 415.88a12.233 12.233 0 1 1 -24.465 0 12.233 12.233 0 1 1 24.465 0z" fill="url(#b)" stroke="#3f3f3f" stroke-linecap="round" stroke-linejoin="bevel" stroke-width="2"/>
    <text x="63.88112" y="567.91901" fill="#fff" font-family="Bitstream Vera Sans" font-size="32">
     <tspan x="63.88112" y="567.91901" font-size="18"></tspan>
    </text>
   </g>
  </g>
  <g transform="translate(1740.9 21.103)">
   <path d="m120.57 730.78h38.095a16.667 11.46 0 0 1 16.667 11.46v48.508a16.667 11.46 0 0 1 -16.667 11.46h-38.095a16.667 11.46 0 0 1 -16.667 -11.46v-48.508a16.667 11.46 0 0 1 16.667 -11.46" fill="url(#u)"/>
   <g transform="matrix(.22931 -.15733 .15733 .22931 126.84 539.63)" fill="#fff">
    <path d="m-353.67 597.65c4.486 2.8718-47.371 90.644-46.418 95.885 0.96539 5.3099 80.42 70.574 77.51 75.119-2.8718 4.486-90.644-47.371-95.885-46.418-5.3099 0.96539-70.574 80.42-75.119 77.51-4.486-2.8718 47.371-90.644 46.418-95.885-0.96538-5.3099-80.42-70.574-77.51-75.119 2.8718-4.486 90.644 47.371 95.885 46.418 5.3099-0.96538 70.574-80.42 75.119-77.51z"/>
    <path transform="matrix(.29912 .27977 -.27977 .29912 -102.4 605.3)" d="m-353.67 597.65c4.486 2.8718-47.371 90.644-46.418 95.885 0.96539 5.3099 80.42 70.574 77.51 75.119-2.8718 4.486-90.644-47.371-95.885-46.418-5.3099 0.96539-70.574 80.42-75.119 77.51-4.486-2.8718 47.371-90.644 46.418-95.885-0.96538-5.3099-80.42-70.574-77.51-75.119 2.8718-4.486 90.644 47.371 95.885 46.418 5.3099-0.96538 70.574-80.42 75.119-77.51z"/>
   </g>
   <path transform="matrix(.21782 0 0 .21782 240.57 637.8)" d="m-439.17 590.85a24.29 24.29 0 1 1 -48.581 0 24.29 24.29 0 1 1 48.581 0z" fill="#0ff"/>
   <path transform="matrix(-.01028 -.02785 -.09604 .09249 173.68 708.24)" d="m-659.73 415.96c9.0034 0.7573 176.22 6.9701 180.07 15.146s-97.994 140.95-103.15 148.37-94.148 149.13-103.15 148.37-73.072-155.34-76.917-163.52-82.075-156.1-76.917-163.52 171.07 14.389 180.07 15.146z" fill="url(#t)"/>
   <path transform="matrix(.01028 .02785 .09604 -.09249 106.87 822.85)" d="m-659.73 415.96c9.0034 0.7573 176.22 6.9701 180.07 15.146s-97.994 140.95-103.15 148.37-94.148 149.13-103.15 148.37-73.072-155.34-76.917-163.52-82.075-156.1-76.917-163.52 171.07 14.389 180.07 15.146z" fill="url(#s)"/>
  </g>
  <g transform="translate(1748.4 28.795)">
   <path d="m204.38 510.74h38.095a16.667 11.46 0 0 1 16.667 11.46v48.508a16.667 11.46 0 0 1 -16.667 11.46h-38.095a16.667 11.46 0 0 1 -16.667 -11.46v-48.508a16.667 11.46 0 0 1 16.667 -11.46" fill="#5d5d5d"/>
   <path d="m205.98 513.73h34.905a15.271 10.501 0 0 1 15.271 10.501v44.447a15.271 10.501 0 0 1 -15.271 10.501h-34.905a15.271 10.501 0 0 1 -15.271 -10.501v-44.447a15.271 10.501 0 0 1 15.271 -10.501" fill="url(#r)"/>
   <g transform="translate(-268.77 -2.9349)">
    <g transform="translate(0 1.459)">
     <path d="m493.97 532.44c-3.2316-0.12429-2.3388 8.179-5.5625 8.4375-3.1844 0.25536-3.5274-8.0822-6.6563-7.4375-3.1675 0.65271-0.33809 8.4775-3.4062 9.5-3.0308 1.01-5.3664-6.9998-8.25-5.625-2.9192 1.3918 1.7343 8.3355-1 10.062-2.701 1.706-6.9042-5.525-9.375-3.5-0.28377 0.23255-0.44534 0.49793-0.53125 0.8125v1.0625c0.4321 2.5658 3.6676 6.3257 1.9375 8.125-0.4984 0.51834-1.162 0.60115-1.9375 0.46875v15.812c0 5.8173 6.7898 10.5 15.25 10.5h34.906c8.4602 0 15.281-4.6827 15.281-10.5v-14.219c-0.22367-0.48924-0.18607-1.0488 0-1.6562v-7.75c-2.4054 1.0707-5.3547 4.0663-7.1875 2.6875-2.5529-1.9205 2.707-8.3766-0.0625-9.9688-2.8037-1.6119-5.8692 6.113-8.8437 4.8438-2.9383-1.2538 0.63258-8.8043-2.4375-9.6875-3.108-0.89406-4.2456 7.3642-7.4375 6.8438-3.153-0.51413-1.4953-8.6897-4.6875-8.8125z" fill="#cec8c8"/>
     <path d="m491.89 548.25c-15.641 0-28.651 11.217-31.5 26.031 2.3247 3.7517 7.738 6.375 14.062 6.375h34.906c6.3451 0 11.75-2.6349 14.062-6.4062-2.861-14.799-15.901-26-31.531-26z" fill="url(#q)"/>
     <path d="m463.31 549.38c-1.8186-0.12053-1.3988 4.5879-3.2188 4.6875-0.35523 0.01943-0.6563-0.16236-0.90625-0.4375v16.531c0 5.8173 6.821 10.5 15.281 10.5h11.438c-0.27013-0.25236-0.42968-0.52152-0.40625-0.875 0.12053-1.8186 4.8496-1.3676 4.75-3.1875s-4.7443-0.83035-5.0625-2.625 4.376-2.4755 3.8438-4.2188-4.7928 0.29134-5.5312-1.375 3.6527-3.4348 2.7188-5-4.603 1.4412-5.7188 0 2.7189-4.2038 1.4375-5.5-4.103 2.5073-5.5312 1.375 1.6481-4.7356 0.09375-5.6875-3.3735 3.4139-5.0312 2.6562 0.42447-5.0102-1.3125-5.5625-2.4591 4.1201-4.25 3.7812-0.7751-4.942-2.5938-5.0625z" fill="#a5a5a5"/>
    </g>
    <path d="m520.5 550.83c1.8186-0.12053 1.3988 4.5879 3.2188 4.6875 0.35523 0.01943 0.6563-0.16236 0.90625-0.4375v16.531c0 5.8173-6.821 10.5-15.281 10.5h-11.438c0.27013-0.25236 0.42968-0.52152 0.40625-0.875-0.12053-1.8186-4.8496-1.3676-4.75-3.1875s4.7443-0.83035 5.0625-2.625-4.376-2.4755-3.8438-4.2188 4.7928 0.29134 5.5312-1.375-3.6527-3.4348-2.7188-5 4.603 1.4412 5.7188 0-2.7189-4.2038-1.4375-5.5 4.103 2.5073 5.5312 1.375-1.6481-4.7356-0.09375-5.6875 3.3735 3.4139 5.0312 2.6562-0.42447-5.0102 1.3125-5.5625 2.4591 4.1201 4.25 3.7812 0.7751-4.942 2.5938-5.0625z" fill="#a5a5a5"/>
   </g>
  </g>
  <g transform="translate(1193.5 -26.668)">
   <path d="m669.88 454.91v71.438h8.375v-71.438h-8.375z" fill="#ff0"/>
   <path d="m651.25 469.8v10.781h71.406v-10.781h-71.406z" fill="#f60"/>
   <g transform="translate(0 3.2051)">
    <path d="m686.22 490.18v23.397" fill="none" stroke="#575757"/>
    <path transform="matrix(.5445 0 0 .5445 271.86 195.41)" d="m772.74 541.59a11.962 11.962 0 1 1 -23.924 0 11.962 11.962 0 1 1 23.924 0z" fill="url(#l)"/>
   </g>
  </g>
  <g transform="translate(1737 28.795)">
   <g transform="translate(-.24387)">
    <path d="m-58.325 399.23h38.095a16.667 11.46 0 0 1 16.667 11.46v48.508a16.667 11.46 0 0 1 -16.667 11.46h-38.095a16.667 11.46 0 0 1 -16.667 -11.46v-48.508a16.667 11.46 0 0 1 16.667 -11.46" fill="#520"/>
    <path d="m-39.278 402.09a31.728 8.7794 0 0 1 31.728 8.7794v47.723a31.728 8.7794 0 0 1 -31.728 8.7794 31.728 8.7794 0 0 1 -31.728 -8.7794v-47.723a31.728 8.7794 0 0 1 31.728 -8.7794" fill="#808000"/>
    <path d="m-39.278 406.21a26.232 6.3772 0 0 1 26.232 6.3772v34.665a26.232 6.3772 0 0 1 -26.232 6.3772 26.232 6.3772 0 0 1 -26.232 -6.3772v-34.665a26.232 6.3772 0 0 1 26.232 -6.3772" fill="#333"/>
    <path transform="translate(1.992 .10573)" d="m-54.963 458.76a3.4352 3.4352 0 1 1 -6.8703 0 3.4352 3.4352 0 1 1 6.8703 0z" fill="url(#d)"/>
    <path transform="translate(36.248 .10573)" d="m-54.963 458.76a3.4352 3.4352 0 1 1 -6.8703 0 3.4352 3.4352 0 1 1 6.8703 0z" fill="url(#d)"/>
   </g>
   <path d="m-58.568 399.23c-9.2333 0-16.656 5.0886-16.656 11.438v15.125c9.4004 5.8664 21.919 9.4688 35.688 9.4688s26.318-3.6023 35.719-9.4688v-15.125c0-6.3489-7.4229-11.438-16.656-11.438h-38.094z" fill="url(#p)"/>
  </g>
  <g transform="translate(1736.9 28.795)">
   <g transform="matrix(.83923 0 0 .83923 -15.9 40.147)" fill="#fff">
    <path d="m-64.12 253.41h3.8864v10.974h-3.8864z"/>
    <path d="m-71.741 257.22h3.8864v7.1676h-3.8864z"/>
    <path d="m-56.499 248.34h3.8864v16.049h-3.8864z"/>
    <path d="m-48.878 244.95h3.8864v19.432h-3.8864z"/>
    <path d="m-79.363 259.33h3.8864v5.053h-3.8864z"/>
   </g>
   <text x="-49.50323" y="261.30179" fill="#fff" font-family="Bitstream Vera Sans" font-size="16">
    <tspan x="-49.50323" y="261.30179">cingular</tspan>
   </text>
   <path transform="matrix(.50992 0 0 -.50992 -33.36 387.55)" d="m158.17 262.35a26.221 13.533 0 1 1 -52.442 0" fill="none" stroke="#fff" stroke-linecap="round" stroke-linejoin="bevel" stroke-width="3.9222"/>
   <path transform="matrix(.33706 0 0 -.30897 -10.55 338.46)" d="m158.17 262.35a26.221 13.533 0 1 1 -52.442 0" fill="none" stroke="#fff" stroke-linecap="round" stroke-linejoin="bevel" stroke-width="6.1976"/>
   <path transform="matrix(.19949 0 0 -.1415 7.6012 298.15)" d="m158.17 262.35a26.221 13.533 0 1 1 -52.442 0" fill="none" stroke="#fff" stroke-linecap="round" stroke-linejoin="bevel" stroke-width="11.904"/>
   <text x="67.96719" y="261.77167" fill="#fff" font-family="Bitstream Vera Sans" font-size="18">
    <tspan x="67.96719" y="261.77167">9:41 AM</tspan>
   </text>
   <g transform="matrix(.69548 0 0 .69548 109.7 111.85)">
    <path d="m175.87 192.96h52.58v21.757h-52.58z" fill="none" stroke="#fff" stroke-linecap="round" stroke-linejoin="bevel" stroke-width="2.8757"/>
    <path d="m180.55 197.08h43.216v13.505h-43.216z" fill="#fff"/>
    <path d="m228.58 200.19h6.7688v7.2894h-6.7688z" fill="#fff"/>
   </g>
  </g>
  <text x="1956.0989" y="842.69562" fill="#fff" font-size="15">
   <tspan x="1956.0989" y="842.69562">iPod</tspan>
  </text>
  <text x="1864.3191" y="842.69562" fill="#fff" font-size="15">
   <tspan x="1864.3191" y="842.69562">Web</tspan>
  </text>
  <text x="1774.311" y="842.69562" fill="#fff" font-size="15">
   <tspan x="1774.311" y="842.69562">Mail</tspan>
  </text>
  <text x="1673.8599" y="842.69562" fill="#fff" font-size="15">
   <tspan x="1673.8599" y="842.69562">Phone</tspan>
  </text>
  <text x="1940.9121" y="632.43921" fill="#fff" font-size="15">
   <tspan x="1940.9121" y="632.43921">Settings</tspan>
  </text>
  <text x="1858.4597" y="632.78284" fill="#fff" font-size="15">
   <tspan x="1858.4597" y="632.78284">Notes</tspan>
  </text>
  <text x="1751.0237" y="632.78284" fill="#fff" font-size="15">
   <tspan x="1751.0237" y="632.78284">Calculator</tspan>
  </text>
  <text x="1676.6614" y="632.78284" fill="#fff" font-size="15">
   <tspan x="1676.6614" y="632.78284">Clock</tspan>
  </text>
  <text x="1667.345" y="521.24438" fill="#fff" font-size="15">
   <tspan x="1667.345" y="521.24438">YouTube</tspan>
  </text>
  <text x="1764.7749" y="521.24438" fill="#fff" font-size="15">
   <tspan x="1764.7749" y="521.24438">Stocks</tspan>
  </text>
  <text x="1860.364" y="520.90076" fill="#fff" font-size="15">
   <tspan x="1860.364" y="520.90076">Maps</tspan>
  </text>
  <text x="1940.0039" y="521.24438" fill="#fff" font-size="15">
   <tspan x="1940.0039" y="521.24438">Weather</tspan>
  </text>
  <text x="1942.6333" y="408.08023" fill="#fff" font-size="15">
   <tspan x="1942.6333" y="408.08023">Camera</tspan>
  </text>
  <text x="1854.7976" y="408.08023" fill="#fff" font-size="15">
   <tspan x="1854.7976" y="408.08023">Photos</tspan>
  </text>
  <text x="1755.4036" y="408.08023" fill="#fff" font-size="15">
   <tspan x="1755.4036" y="408.08023">Calendar</tspan>
  </text>
  <text x="1682.5024" y="408.08023" fill="#fff" font-size="15">
   <tspan x="1682.5024" y="408.08023">Text</tspan>
  </text>
 </g>
</svg>
